<?xml version='1.0' encoding='utf-8'?>
<svg xmlns="http://www.w3.org/2000/svg" version="1.1" id="Layer_1" x="0px" y="0px" viewBox="0 0 216 208.8" style="enable-background:new 0 0 216 208.8;"> <style type="text/css"> .st0{fill:#2BAAE2;} .st1{fill:#D9E026;} </style> <g> <g> <path class="st0" d="M58.21,49.22c-5.82-1.77-11.78-3.24-17.73-3.49c-5.72-0.36-12.54,1.07-13.47,6.58 c-0.78,11.23,8.37,21.9,15.73,30.99c16.17,18.4,35.61,33.85,56.01,47.48c20.51,13.34,42.33,25.62,65.94,31.76 c5.31,1.27,10.82,2.26,16.08,1.66c5.35-0.35,9.78-4.15,8.96-9.65c-1.41-10.58-8.87-19.88-15.71-28.35 c-14.51-16.9-31.81-31.3-49.98-44.24c17.88,12.14,34.97,25.67,49.69,41.67c7.12,8.11,14.38,16.6,17.68,27.43 c2.02,5.15-0.14,13.03-6.41,14.78c-5.62,1.93-11.34,1.31-16.76,0.47c-25.02-5.33-47.29-17.93-68.46-31.3 c-20.99-13.79-40.96-29.39-57.87-48.17c-7.82-9.6-17.23-19.42-18.05-33.37c0.02-3.53,2.31-7.21,5.53-8.79 c3.17-1.62,6.58-1.96,9.83-1.98c6.53,0.09,12.77,1.57,18.84,3.36c7.11,2.24,14.01,4.94,20.76,7.97l-1.72,2.49 C70.93,53.77,64.64,51.3,58.21,49.22z"/> </g> <path class="st1" d="M80.87,54.18c-0.39-2.15-2.45-3.57-4.6-3.18c-2.15,0.39-3.57,2.45-3.18,4.6c0.39,2.15,2.45,3.57,4.6,3.18 C79.84,58.39,81.26,56.33,80.87,54.18z"/> <g> <path class="st0" d="M58.21,160.61c-5.82,1.77-11.78,3.24-17.73,3.49c-5.72,0.36-12.54-1.07-13.47-6.58 c-0.78-11.23,8.37-21.9,15.73-30.99c16.17-18.4,35.61-33.85,56.01-47.48c20.51-13.34,42.33-25.62,65.94-31.76 c5.31-1.27,10.82-2.26,16.08-1.66c5.35,0.35,9.78,4.15,8.96,9.65c-1.41,10.58-8.87,19.88-15.71,28.35 c-14.51,16.89-31.81,31.3-49.98,44.24c17.88-12.14,34.97-25.67,49.69-41.67c7.12-8.11,14.38-16.6,17.68-27.43 c2.02-5.15-0.14-13.03-6.41-14.78c-5.62-1.93-11.34-1.31-16.76-0.47c-25.02,5.33-47.29,17.93-68.46,31.3 c-20.99,13.79-40.96,29.39-57.87,48.17c-7.82,9.6-17.23,19.42-18.04,33.37c0.02,3.53,2.31,7.21,5.53,8.79 c3.17,1.62,6.58,1.96,9.83,1.98c6.53-0.09,12.77-1.57,18.84-3.36c7.11-2.24,14.01-4.94,20.76-7.97l-1.72-2.49 C70.93,156.06,64.64,158.53,58.21,160.61z"/> </g> <g> <path class="st0" d="M125.7,177c-1.85,5.79-4.04,11.53-7.21,16.57c-2.96,4.91-8.01,9.71-13.07,7.34 c-9.68-5.75-13.25-19.34-16.55-30.56c-5.94-23.76-7.59-48.54-7.2-73.07c0.69-24.46,3-49.39,11.38-72.3 c1.97-5.09,4.29-10.18,7.78-14.17c3.34-4.2,8.98-5.68,13.03-1.88c7.9,7.18,11.3,18.6,14.38,29.05 c2.77,10.57,4.66,21.35,5.91,32.22c0.34,0.03,0.53,0.03,0.77,0c-0.94-10.25-2.45-20.44-4.73-30.52 c-2.62-10.47-5.47-21.27-12.51-30.14c-3.08-4.59-10.79-7.29-15.8-3.14c-4.78,3.52-7.53,8.58-9.92,13.51 c-9.84,23.61-12.15,49.09-13.2,74.11c-0.6,25.11,0.87,50.41,6.7,75c3.45,11.9,6.17,25.21,17.19,33.82 c2.91,1.99,7.24,2.2,10.38,0.45c3.14-1.69,5.36-4.3,7.22-6.96c3.64-5.42,5.98-11.4,7.96-17.41c2.2-7.12,3.91-14.33,5.25-21.61 h-3.03C129.19,163.95,127.64,170.53,125.7,177z"/> </g> <path class="st1" d="M80.87,155.65c-0.39,2.15-2.45,3.57-4.6,3.18c-2.15-0.39-3.57-2.45-3.18-4.6c0.39-2.15,2.45-3.57,4.6-3.18 C79.84,151.44,81.26,153.5,80.87,155.65z"/> <path class="st1" d="M135.17,158.43c0,2.18-1.77,3.96-3.96,3.96c-2.18,0-3.96-1.77-3.96-3.96c0-2.18,1.77-3.96,3.96-3.96 C133.39,154.47,135.17,156.24,135.17,158.43z"/> </g> </svg>